<svg xmlns="http://www.w3.org/2000/svg" width="430" height="430" fill="none" viewBox="0 0 430 430"><path fill="#dce301" d="M327.5 195H270v-20h57.5c31.756 0 57.5 25.744 57.5 57.5S359.256 290 327.5 290H270v-20h57.5c20.711 0 37.5-16.789 37.5-37.5S348.211 195 327.5 195"/><path fill="#dce301" d="M327.5 195H270v-20h57.5c31.756 0 57.5 25.744 57.5 57.5S359.256 290 327.5 290H270v-20h57.5c20.711 0 37.5-16.789 37.5-37.5S348.211 195 327.5 195" opacity=".5" style="mix-blend-mode:multiply"/><path fill="#dce301" d="M80 178a3 3 0 0 1 3-3h212v165c0 22.091-17.909 40-40 40H120c-22.091 0-40-17.909-40-40z"/><path fill="#dce301" d="M120 175H83a3 3 0 0 0-3 3v162c0 22.091 17.909 40 40 40h40c-22.091 0-40-17.909-40-40z" opacity=".5" style="mix-blend-mode:multiply"/><path stroke="#40602b" stroke-linecap="round" stroke-linejoin="round" stroke-miterlimit="10" stroke-width="7" d="M129 41q26 25 0 50t0 50m61-100q26 25 0 50t0 50m61-100q26 25 0 50t0 50"/><path fill="#40602b" d="M211.5 225a3.5 3.5 0 1 0 7 0zm0-50v50h7v-50z"/><path fill="#f18060" d="M244.785 249.464c.142.354.215.732.215 1.114V287a3 3 0 0 1-3 3h-54a3 3 0 0 1-3-3v-36.422c0-.382.073-.76.215-1.114l9.031-22.578a3 3 0 0 1 2.785-1.886h35.938c1.227 0 2.33.747 2.785 1.886z"/><path fill="#f18060" d="M205 290v-39.422c0-.382.073-.76.215-1.114L215 225h-17.969c-1.227 0-2.33.747-2.785 1.886l-9.031 22.578a3 3 0 0 0-.215 1.114V287a3 3 0 0 0 3 3z" opacity=".5" style="mix-blend-mode:multiply"/></svg>