<svg xmlns="http://www.w3.org/2000/svg" width="430" height="430" fill="none" viewBox="0 0 430 430"><path fill="#f18060" d="M377.679 230.315c-16.537 10.983-41.588 15.796-64.666 17.771 17.524 15.179 34.925 33.69 41.835 52.324 5.183 13.822-4.566 28.507-19.251 29.371-6.417.37-12.958-.494-19.005-1.974-13.081-3.209-25.915 6.047-26.902 19.498-.494 6.17-1.605 12.711-3.949 18.758-5.307 13.698-22.337 18.264-33.937 9.132-15.55-12.341-27.89-34.678-36.899-56.027-9.009 21.349-21.226 43.686-36.899 56.027-11.476 9.132-28.507 4.442-33.936-9.132-2.345-6.047-3.579-12.464-3.95-18.758-.987-13.451-13.821-22.707-26.902-19.498-6.047 1.48-12.588 2.344-19.005 1.974-14.685-.864-24.311-15.673-19.251-29.371 6.91-18.634 24.31-37.269 41.835-52.324-23.077-1.975-48.13-6.788-64.666-17.771-12.217-8.145-13.08-25.792-1.727-35.047a61.8 61.8 0 0 1 16.536-9.503c12.464-5.059 17.4-20.238 10.243-31.592-3.332-5.306-6.17-11.23-7.775-17.524-3.702-14.191 7.281-28.013 22.09-27.396 19.869.864 42.946 11.6 62.691 23.694-5.307-22.583-8.392-47.882-3.085-67.01 3.949-14.191 20.485-20.485 32.826-12.464 5.43 3.456 10.243 8.022 14.192 12.835 8.638 10.242 24.558 10.242 33.196 0 4.073-4.813 8.762-9.256 14.192-12.835 12.341-7.898 28.877-1.727 32.826 12.464 5.307 19.128 2.221 44.427-3.085 67.01 19.868-11.97 42.822-22.83 62.691-23.694 14.685-.617 25.792 13.081 22.089 27.396-1.604 6.294-4.442 12.218-7.774 17.524-7.158 11.354-2.222 26.533 10.243 31.592 5.8 2.345 11.6 5.43 16.536 9.503 11.724 9.379 10.86 27.026-1.357 35.047"/><path fill="#f18060" d="M70.571 239.176c-10.71-8.556-11.016-25.064-.167-33.908a61.8 61.8 0 0 1 16.536-9.502c12.464-5.06 17.401-20.239 10.243-31.593-3.332-5.306-6.17-11.23-7.775-17.523-3.702-14.192 7.281-28.014 22.09-27.397 11.001.479 22.985 3.983 34.842 9.069-17.837-10.091-37.554-18.317-54.842-19.069-14.809-.617-25.792 13.205-22.09 27.397 1.605 6.293 4.443 12.217 7.775 17.523 7.158 11.354 2.221 26.533-10.243 31.593a61.8 61.8 0 0 0-16.536 9.502c-11.354 9.255-10.49 26.903 1.727 35.047 5.37 3.566 11.635 6.482 18.44 8.861" opacity=".5" style="mix-blend-mode:multiply"/><path fill="#f18060" d="m253.5 207.5 96.816-34.318c-2.24-6.048-1.813-13.054 1.941-19.009 3.332-5.306 6.17-11.23 7.774-17.524 3.703-14.315-7.404-28.013-22.089-27.396-19.869.864-42.823 11.724-62.691 23.694L233 179zM66.94 185.766a61.8 61.8 0 0 0-16.536 9.502c-11.354 9.255-10.49 26.903 1.727 35.047 16.537 10.984 41.588 15.796 64.666 17.771l-.09.077 50.687-8.592 10.676-34.678L79.19 173c-2.005 5.561-6.257 10.333-12.25 12.766m147.965 133.402.112.264.01-.141v-49.979L189 253.061l-58 78.101c5.077 3.586 8.62 9.325 9.121 16.143.37 6.294 1.604 12.711 3.949 18.758 5.43 13.575 22.46 18.264 33.937 9.132 15.672-12.341 27.89-34.677 36.898-56.027m-26.16-148.953-34.307-37.269-.574-1.4c-5.105-22.223-7.957-46.875-2.76-65.609 3.949-14.191 20.485-20.485 32.826-12.464 5.43 3.456 10.243 8.022 14.192 12.835 4.392 5.207 10.665 7.767 16.907 7.68v96.227z" opacity=".4" style="mix-blend-mode:multiply"/><path stroke="#f18060" stroke-linecap="round" stroke-linejoin="round" stroke-miterlimit="10" stroke-width="7" d="M215.027 166.367V127m-50.472 72.957-37.269-12.218"/><path fill="#f18060" d="M354.848 300.41c-6.91-18.634-24.311-37.145-41.834-52.324h-.004l-50.226-8.762L242 252.374 297.7 332c5.07-4.087 11.946-5.897 18.892-4.193 6.047 1.48 12.588 2.344 19.005 1.974 14.685-.864 24.434-15.549 19.251-29.371" opacity=".4" style="mix-blend-mode:multiply"/><path stroke="#f18060" stroke-linecap="round" stroke-linejoin="round" stroke-miterlimit="10" stroke-width="7" d="m183.806 259.193-23.077 31.715m85.52-31.716 23.077 31.716m-3.825-87.89L302.77 190.8"/><path stroke="#f18060" stroke-linecap="round" stroke-linejoin="round" stroke-miterlimit="10" stroke-width="7" d="M215.027 166.367V127m-50.472 72.957-37.269-12.218m56.52 71.454-23.077 31.715m85.52-31.716 23.077 31.716m-3.825-87.89L302.77 190.8" opacity=".8" style="mix-blend-mode:multiply"/><path fill="#dce301" d="M215.028 269.189c29.239 0 52.942-23.703 52.942-52.941s-23.703-52.942-52.942-52.942c-29.238 0-52.941 23.703-52.941 52.942 0 29.238 23.703 52.941 52.941 52.941"/><path fill="#dce301" d="M248.151 257.55a53 53 0 0 1-13.123 1.639c-29.238 0-52.941-23.702-52.941-52.941 0-16.703 7.735-31.6 19.819-41.303-22.891 5.838-39.819 26.594-39.819 51.303 0 29.239 23.703 52.941 52.941 52.941a52.72 52.72 0 0 0 33.123-11.639" opacity=".5" style="mix-blend-mode:multiply"/><path stroke="#dce301" stroke-linecap="round" stroke-linejoin="round" stroke-miterlimit="10" stroke-width="10" d="M210.956 219.072h.123m13.822-25.732h.124m14.933 25.671h.123" style="mix-blend-mode:multiply"/><path fill="#f18060" d="M95.75 268.46c-9.132 10.174-16.75 21.062-20.788 31.95-5.06 13.698 4.566 28.507 19.25 29.371 6.418.37 12.959-.494 19.006-1.975 13.081-3.208 25.915 6.047 26.902 19.499.37 6.293 1.605 12.711 3.949 18.757 5.43 13.575 22.46 18.265 33.937 9.133 8.316-6.548 15.659-15.91 22.066-26.445-2.272 2.362-4.627 4.525-7.066 6.445-11.477 9.132-28.507 4.442-33.937-9.132-2.344-6.047-3.579-12.464-3.949-18.758-.987-13.452-13.821-22.707-26.902-19.499-6.047 1.481-12.588 2.345-19.005 1.975-14.685-.864-24.311-15.673-19.251-29.371 1.481-3.995 3.445-7.99 5.788-11.95" opacity=".5" style="mix-blend-mode:multiply"/></svg>