<svg xmlns="http://www.w3.org/2000/svg" width="430" height="430" fill="none" viewBox="0 0 430 430"><path fill="#f18060" d="M247.584 110.268V30.15h-65.268v80.118z"/><path fill="#f18060" d="M182.316 30.15h25v80.118h-25z" opacity=".5" style="mix-blend-mode:multiply"/><path fill="#dce301" d="M191.327 99.576h47.246c29.688 0 53.716 24.027 53.716 53.715v234.037c0 7.046-5.776 12.822-12.823 12.822H150.434c-7.046 0-12.822-5.776-12.822-12.822V153.175c0-29.572 24.027-53.6 53.715-53.6"/><path fill="#dce301" d="M216.327 99.576h-25c-29.688 0-53.715 24.027-53.715 53.599v234.153c0 7.046 5.776 12.822 12.822 12.822h25c-7.046 0-12.822-5.776-12.822-12.822V153.175c0-29.572 24.027-53.6 53.715-53.6" opacity=".5" style="mix-blend-mode:multiply"/><path stroke="#f18060" stroke-linecap="round" stroke-linejoin="round" stroke-miterlimit="10" stroke-width="7" d="M170.073 30.15h89.756"/><path fill="#f18060" d="M170.073 26.65a3.5 3.5 0 1 0 0 7zm0 7h37.324v-7h-37.324z" opacity=".5" style="mix-blend-mode:multiply"/><path fill="#f18060" d="M214.892 265.868c24.853 0 45-20.147 45-45s-20.147-45-45-45-45 20.147-45 45 20.147 45 45 45"/><path fill="#f18060" d="M246.826 252.573a44.9 44.9 0 0 1-16.934 3.295c-24.853 0-45-20.147-45-45 0-12.368 4.99-23.571 13.066-31.705-16.46 6.69-28.066 22.842-28.066 41.705 0 24.853 20.147 45 45 45 12.485 0 23.782-5.084 31.934-13.295" opacity=".5" style="mix-blend-mode:multiply"/><path stroke="#40602b" stroke-linecap="round" stroke-linejoin="round" stroke-miterlimit="10" stroke-width="7" d="M248.855 306.35h-67.809m67.808 35h-67.808"/></svg>