<svg xmlns="http://www.w3.org/2000/svg" width="430" height="430" fill="none" viewBox="0 0 430 430"><path stroke="#f18060" stroke-linecap="round" stroke-linejoin="round" stroke-width="7" d="M26.54 132.14h80.839m-80.84 41.75h80.84m-80.69 41.25h80.84m-80.84 41.75h80.84m-81 41.25h80.84"/><path fill="#dce301" d="M403.519 134.5v162a2.37 2.37 0 0 1-2.37 2.37h-247a2.37 2.37 0 0 1-2.37-2.37v-162a2.35 2.35 0 0 1 .7-1.67 2.3 2.3 0 0 1 1.67-.7h246.99a2.34 2.34 0 0 1 1.67.69 2.36 2.36 0 0 1 .71 1.68"/><path fill="#40602b" d="m402.819 132.85-104.6 105a29.22 29.22 0 0 1-20.67 8.571 29.2 29.2 0 0 1-20.67-8.571l-17.64-17.74-.14-.14-86.61-87.09a2.3 2.3 0 0 1 1.67-.7h246.99a2.33 2.33 0 0 1 1.67.67"/><path fill="#40602b" d="m273.089 237.81-17.65-17.74-86.75-87.23c-.28-.28-.49-.5-.67-.7h-13.86a2.3 2.3 0 0 0-1.67.7l86.75 87.23 17.64 17.74a29.17 29.17 0 0 0 24.78 8.28 29 29 0 0 0 4-.87 29 29 0 0 1-12.57-7.41" opacity=".5" style="mix-blend-mode:multiply"/><path fill="#dce301" d="m239.239 220.07-87.45 73.18v-10.17l66.45-58.39a82.8 82.8 0 0 1 15.14-10.43zm164.28 63.06v10.13l-87.47-73.19 5.87-5.81a83.3 83.3 0 0 1 15.14 10.43l66.44 58.39z" opacity=".5" style="mix-blend-mode:multiply"/></svg>