<svg xmlns="http://www.w3.org/2000/svg" width="430" height="430" fill="none" viewBox="0 0 430 430"><path fill="#40602b" fill-rule="evenodd" d="M76.532 132.029c-3.96 17.687-5.456 40.795-5.456 71.372 0 44.601 3.248 72.717 11.957 91.11 7.83 16.538 20.793 26.581 46.486 32.43l9.337 2.126a3 3 0 0 1 2.334 2.925v25.753l31.589-24.68a3 3 0 0 1 1.978-.634l4.422.193c10.872.474 22.775.678 35.821.678 33.605 0 59.305-1.361 79.129-5.051 19.742-3.675 32.354-9.434 40.931-17.254 8.44-7.696 14.504-18.79 18.408-36.224 3.961-17.687 5.455-40.796 5.455-71.372 0-30.577-1.494-53.685-5.455-71.372-3.904-17.434-9.968-28.529-18.408-36.224-8.577-7.82-21.189-13.579-40.931-17.254C274.305 74.861 248.605 73.5 215 73.5s-59.305 1.36-79.129 5.051c-19.742 3.675-32.354 9.434-40.93 17.254-8.441 7.695-14.505 18.79-18.41 36.224m53.849-82.971C153.031 44.842 181 43.5 215 43.5s61.969 1.342 84.619 5.558c22.732 4.231 41.4 11.583 55.653 24.578 14.389 13.12 22.704 30.545 27.471 51.838 4.711 21.039 6.18 46.863 6.18 77.927s-1.469 56.888-6.18 77.927c-4.767 21.293-13.082 38.718-27.471 51.838-14.253 12.995-32.921 20.347-55.653 24.578-22.65 4.216-50.619 5.558-84.619 5.558-11.204 0-21.717-.147-31.569-.489l-67.394 52.655c-1.97 1.539-4.847.135-4.847-2.364v-60.033c-25.821-8.047-44.098-22.124-55.272-45.722-11.909-25.151-14.841-59.546-14.841-103.948 0-31.064 1.469-56.888 6.18-77.927 4.767-21.293 13.082-38.719 27.47-51.838 14.254-12.995 32.922-20.347 55.654-24.578" clip-rule="evenodd"/><path fill="#40602b" d="M76.532 132.029c-3.96 17.687-5.456 40.795-5.456 71.372 0 44.601 3.248 72.717 11.957 91.11 7.83 16.538 20.793 26.581 46.486 32.43l9.337 2.126a3 3 0 0 1 2.334 2.925v25.753l31.589-24.68a3 3 0 0 1 1.978-.634l4.422.193c10.872.474 22.775.678 35.821.678v30c-11.204 0-21.717-.147-31.569-.489l-67.394 52.655c-1.97 1.539-4.847.135-4.847-2.364v-60.033c-25.821-8.047-44.098-22.124-55.272-45.722-11.909-25.151-14.841-59.546-14.841-103.948 0-31.064 1.469-56.888 6.18-77.927 4.767-21.293 13.082-38.719 27.47-51.838 14.254-12.995 32.922-20.347 55.654-24.578C153.031 44.842 181 43.5 215 43.5v30c-33.606 0-59.305 1.36-79.129 5.051-19.742 3.675-32.354 9.434-40.93 17.254-8.441 7.695-14.505 18.79-18.41 36.224" opacity=".5" style="mix-blend-mode:multiply"/><path fill="#40602b" d="M143.167 130.573c-2.405-3.367-14.91 8.451-27.828 26.316s-1.58 54.144 25.217 80.941l41.776 41.776c26.797 26.797 63.007 37.997 80.734 24.942 17.728-13.055 29.821-25.286 27.004-27.347s-11.338-8.245-19.033-13.88c-7.696-5.634-15.872-11.543-18.208-13.261-2.337-1.717-8.864 1.443-14.498 7.078-5.635 5.634-12.299 8.107-14.842 5.565l-32.568-32.569-33.531-33.53c-3.092-3.092-1.031-10.169 4.603-15.804 5.635-5.634 8.658-12.368 6.734-14.979a2594 2594 0 0 0-12.368-16.971c-4.81-6.665-10.719-14.91-13.192-18.277"/><path fill="#40602b" d="M138.312 131.544a206 206 0 0 0-7.973 10.345c-12.917 17.865-1.58 54.144 25.217 80.941l41.776 41.776c26.797 26.797 63.007 37.997 80.734 24.942a243 243 0 0 0 11.365-8.88c-3.161 4.962-13.212 14.194-26.365 23.88-17.727 13.055-53.937 1.855-80.734-24.942l-41.776-41.776c-26.797-26.797-38.134-63.076-25.217-80.941 8.916-12.331 17.636-21.781 22.973-25.345" opacity=".5" style="mix-blend-mode:multiply"/><path stroke="#40602b" stroke-linecap="round" stroke-linejoin="round" stroke-miterlimit="16" stroke-width="12" d="M251.703 212.66c-4.635-19.49-20.004-34.82-39.516-39.398m76.118 44.82c-3.355-43.451-38.066-78.116-81.537-81.4m117.222 86.687c-.867-67.238-55.25-121.572-122.507-122.36"/></svg>